<?xml version="1.0" encoding="iso-8859-1"?>
<!-- Generator: Adobe Illustrator 19.0.0, SVG Export Plug-In . SVG Version: 6.00 Build 0)  -->
<svg version="1.1" id="Capa_1" xmlns="http://www.w3.org/2000/svg" xmlns:xlink="http://www.w3.org/1999/xlink" x="0px" y="0px"
	 viewBox="0 0 384 384" style="enable-background:new 0 0 384 384;" xml:space="preserve">
<g>
	<path style="fill:#007AFF;" d="M144,256v-32v-32v-64H48v64v32v32h32v-32h32v32H144z M80,192v-32h32v32H80z"/>
	<path style="fill:#007AFF;" d="M208,224h64v-96h-96v64v32v32h32V224z M208,160h32v32h-32V160z"/>
	<rect x="304" y="128" style="fill:#007AFF;" width="32" height="128"/>
	<polygon style="fill:#007AFF;" points="192,1.368 153.376,40 0,40 0,104 32,104 32,72 166.624,72 192,46.632 217.376,72 352,72 
		352,104 384,104 384,40 230.624,40 	"/>
	<polygon style="fill:#007AFF;" points="352,312 217.376,312 192,337.368 166.624,312 32,312 32,280 0,280 0,344 153.376,344 
		192,382.632 230.624,344 384,344 384,280 352,280 	"/>
</g>
<g>
</g>
<g>
</g>
<g>
</g>
<g>
</g>
<g>
</g>
<g>
</g>
<g>
</g>
<g>
</g>
<g>
</g>
<g>
</g>
<g>
</g>
<g>
</g>
<g>
</g>
<g>
</g>
<g>
</g>
</svg>
