<?xml version="1.0" encoding="iso-8859-1"?>
<!-- Generator: Adobe Illustrator 19.0.0, SVG Export Plug-In . SVG Version: 6.00 Build 0)  -->
<svg xmlns="http://www.w3.org/2000/svg" xmlns:xlink="http://www.w3.org/1999/xlink" version="1.1" id="Capa_1" x="0px" y="0px" viewBox="0 0 380.56 380.56" style="enable-background:new 0 0 380.56 380.56;" xml:space="preserve" width="512px" height="512px">
<g>
	<g>
		<path d="M76.72,0.76C34.4,0.76,0,28.44,0,62.44s34.4,61.68,76.72,61.68c4.739,0.006,9.472-0.342,14.16-1.04l27.92,25.6    c1.11,1.029,2.567,1.6,4.08,1.6c0.825,0.009,1.642-0.155,2.4-0.48c2.194-0.957,3.608-3.127,3.6-5.52v-36.64    c14.931-10.284,24.056-27.077,24.56-45.2C153.44,28.44,119.04,0.76,76.72,0.76z M119.52,99.64c-1.77,1.038-2.886,2.909-2.96,4.96    v26l-19.68-18c-1.11-1.029-2.567-1.6-4.08-1.6h-1.04c-4.962,0.904-9.996,1.36-15.04,1.36C41.04,112.12,12,89.8,12,62.44    c0-27.36,29.04-49.68,64.72-49.68c35.68,0,64.72,22.32,64.72,49.68C140.811,77.724,132.585,91.683,119.52,99.64z" fill="#933EC5"/>
	</g>
</g>
<g>
	<g>
		<path d="M304,0.6c-42.32,0-76.72,27.68-76.72,61.68c0.504,18.123,9.629,34.916,24.56,45.2v37.12    c-0.008,2.393,1.406,4.563,3.6,5.52c0.758,0.325,1.575,0.489,2.4,0.48c1.513,0,2.97-0.571,4.08-1.6l27.92-25.6    c4.688,0.698,9.421,1.046,14.16,1.04c42.24-0.32,76.56-27.84,76.56-62C380.56,28.28,346.24,0.6,304,0.6z M304,112.12v-0.16    c-5.044,0-10.078-0.456-15.04-1.36c-1.838-0.357-3.737,0.177-5.12,1.44l-20,18.32V104.6c-0.004-1.989-0.992-3.846-2.64-4.96    c-13.065-7.957-21.291-21.916-21.92-37.2c0-27.36,29.04-49.68,64.72-49.68s64.72,22.32,64.72,49.68    C368.72,89.8,339.68,112.12,304,112.12z" fill="#933EC5"/>
	</g>
</g>
<g>
	<g>
		<path d="M116.96,164.52c-25.122,0.044-45.476,20.398-45.52,45.52c0,25.14,20.38,45.52,45.52,45.52s45.52-20.38,45.52-45.52    S142.1,164.52,116.96,164.52z M117.04,243.64c-18.513,0.044-33.556-14.927-33.6-33.44s14.927-33.556,33.44-33.6    c0.053,0,0.107,0,0.16,0c18.463,0.044,33.432,14.977,33.52,33.44h-0.08C150.524,228.553,135.553,243.596,117.04,243.64z" fill="#933EC5"/>
	</g>
</g>
<g>
	<g>
		<path d="M164.56,262.04h-1.44L116.8,273.8l-48-11.76h-1.44c-8.2,0.088-14.8,6.76-14.8,14.96v88c0,8.262,6.698,14.96,14.96,14.96    h97.04c8.262,0,14.96-6.698,14.96-14.96v-88C179.52,268.738,172.822,262.04,164.56,262.04z M164.56,367.96h-96.8    c-1.635,0-2.96-1.325-2.96-2.96v-88c0.013-1.409,1.017-2.614,2.4-2.88l48,11.92c0.945,0.237,1.935,0.237,2.88,0l46.8-11.84    c1.383,0.266,2.387,1.471,2.4,2.88l0.24,87.92C167.52,366.635,166.195,367.96,164.56,367.96z" fill="#933EC5"/>
	</g>
</g>
<g>
	<g>
		<path d="M265.2,164.52c-25.14,0-45.52,20.38-45.52,45.52c0,25.14,20.38,45.52,45.52,45.52c25.122-0.044,45.476-20.398,45.52-45.52    C310.72,184.9,290.34,164.52,265.2,164.52z M265.2,243.56c-18.494-0.044-33.476-15.026-33.52-33.52    c0-18.513,15.007-33.52,33.52-33.52s33.52,15.007,33.52,33.52C298.72,228.553,283.713,243.56,265.2,243.56z" fill="#933EC5"/>
	</g>
</g>
<g>
	<g>
		<path d="M312.88,262.04h-1.44L265.2,273.8l-48-11.76h-1.44c-8.262,0-14.96,6.698-14.96,14.96v88c0,8.262,6.698,14.96,14.96,14.96    h97.12c8.262,0,14.96-6.698,14.96-14.96v-88C327.84,268.738,321.142,262.04,312.88,262.04z M312.88,367.96h-96.96    c-1.635,0-2.96-1.325-2.96-2.96v-88c0.013-1.409,1.017-2.614,2.4-2.88l48,11.92c0.945,0.237,1.935,0.237,2.88,0l46.8-11.84    c1.383,0.266,2.387,1.471,2.4,2.88l0.4,87.92C315.84,366.635,314.515,367.96,312.88,367.96z" fill="#933EC5"/>
	</g>
</g>
<g>
</g>
<g>
</g>
<g>
</g>
<g>
</g>
<g>
</g>
<g>
</g>
<g>
</g>
<g>
</g>
<g>
</g>
<g>
</g>
<g>
</g>
<g>
</g>
<g>
</g>
<g>
</g>
<g>
</g>
</svg>
