<?xml version="1.0" encoding="iso-8859-1"?>
<!-- Generator: Adobe Illustrator 19.0.0, SVG Export Plug-In . SVG Version: 6.00 Build 0)  -->
<svg version="1.1" id="Layer_1" xmlns="http://www.w3.org/2000/svg" xmlns:xlink="http://www.w3.org/1999/xlink" x="0px" y="0px"
	 viewBox="0 0 512 512" style="enable-background:new 0 0 512 512;" xml:space="preserve">
<path style="fill:#1E0478;" d="M449.503,137.657c35.213,4.552,62.497,34.706,62.497,71.13c0,36.412-27.285,66.566-62.497,71.13
	v82.373c0,9.078-4.663,17.229-12.48,21.818c-4.007,2.35-8.41,3.525-12.826,3.525c-4.267,0-8.522-1.088-12.43-3.278
	c-70.772-39.579-147.332-63.821-227.813-72.182l49.387,136.237c2.795,7.668,1.67,16.252-3.03,22.956
	c-4.688,6.704-12.368,10.699-20.544,10.699h-57.686c-10.513,0-19.987-6.642-23.586-16.512L71.019,306.906
	c-12.245-5.417-21.162-17.006-22.782-30.797H32.083C14.397,276.108,0,261.724,0,244.037v-70.475
	c0-17.674,14.397-32.071,32.083-32.071h16.153c2.251-19.159,18.59-34.087,38.354-34.087c0,0,78.712-0.346,79.38-0.396
	c87.073-6.456,169.78-31.28,245.796-73.802c7.965-4.453,17.402-4.354,25.256,0.247c7.817,4.589,12.48,12.752,12.48,21.818V137.657z
	 M487.263,208.788c0-22.758-16.252-41.78-37.761-46.097v92.181C471.011,250.555,487.263,231.533,487.263,208.788z M424.766,362.291
	V55.272c0-0.173,0-0.322-0.26-0.482c-0.322-0.173-0.507-0.074-0.668,0.012c-76.016,42.51-158.451,68.038-245.178,75.966v156.039
	c86.714,7.916,169.15,33.444,245.178,75.954c0.161,0.087,0.346,0.198,0.668,0.012C424.766,362.613,424.766,362.477,424.766,362.291z
	 M210.052,457.181c0.111-0.161,0.074-0.223,0.037-0.334L156.93,310.196H98.514l53.233,146.911c0.049,0.124,0.186,0.223,0.334,0.223
	h57.686C209.866,457.329,209.94,457.329,210.052,457.181z M153.924,285.459V132.141H86.591c-7.668,0-13.902,6.234-13.902,13.902
	v125.514c0,5.652,3.389,10.513,8.25,12.69c1.781,0.754,2.301,0.891,4.774,1.175C86.009,285.434,153.924,285.459,153.924,285.459z
	 M47.952,251.372v-85.144H32.083c-4.057,0-7.347,3.29-7.347,7.334v70.475c0,4.044,3.29,7.334,7.347,7.334L47.952,251.372
	L47.952,251.372z"/>
<path style="fill:#FFFFFF;" d="M449.503,162.691c21.509,4.317,37.761,23.339,37.761,46.097c0,22.745-16.252,41.768-37.761,46.084
	V162.691z"/>
<path style="fill:#9B8CCC;" d="M424.766,55.272v307.019c0,0.186,0,0.322-0.26,0.482c-0.322,0.186-0.507,0.074-0.668-0.012
	c-76.028-42.51-158.463-68.038-245.178-75.954V130.768c86.727-7.928,169.162-33.456,245.178-75.966
	c0.161-0.087,0.346-0.186,0.668-0.012C424.766,54.95,424.766,55.099,424.766,55.272z"/>
<path style="fill:#94E7EF;" d="M210.089,456.847c0.037,0.111,0.074,0.173-0.037,0.334c-0.111,0.148-0.186,0.148-0.284,0.148h-57.686
	c-0.148,0-0.284-0.099-0.334-0.223L98.514,310.196h58.416L210.089,456.847z"/>
<path style="fill:#9B8CCC;" d="M153.924,132.141v153.318c0,0-67.915-0.025-68.211-0.037c-2.474-0.284-2.993-0.421-4.774-1.175
	c-4.861-2.177-8.25-7.038-8.25-12.69V146.043c0-7.668,6.234-13.902,13.902-13.902L153.924,132.141L153.924,132.141z"/>
<path style="fill:#94E7EF;" d="M47.952,166.228v85.144H32.083c-4.057,0-7.347-3.29-7.347-7.334v-70.475
	c0-4.044,3.29-7.334,7.347-7.334L47.952,166.228L47.952,166.228z"/>
<g>
</g>
<g>
</g>
<g>
</g>
<g>
</g>
<g>
</g>
<g>
</g>
<g>
</g>
<g>
</g>
<g>
</g>
<g>
</g>
<g>
</g>
<g>
</g>
<g>
</g>
<g>
</g>
<g>
</g>
</svg>
