<?xml version="1.0" encoding="iso-8859-1"?>
<!-- Generator: Adobe Illustrator 19.0.0, SVG Export Plug-In . SVG Version: 6.00 Build 0)  -->
<svg xmlns="http://www.w3.org/2000/svg" xmlns:xlink="http://www.w3.org/1999/xlink" version="1.1" id="Capa_1" x="0px" y="0px" viewBox="0 0 353.012 353.012" style="enable-background:new 0 0 353.012 353.012;" xml:space="preserve" width="512px" height="512px">
<g>
	<g>
		<path d="M270.357,247.892c-17.919-0.048-34.621,9.065-44.278,24.16l-61.04-47.28c25.004-29.852,23.273-73.806-4-101.6l49.44-46.48    c17.216,18.321,46.023,19.216,64.344,2.001s19.216-46.023,2.001-64.344C259.608-3.972,230.8-4.868,212.48,12.348    c-14.955,14.053-18.658,36.375-9.041,54.504l-51.76,48.8C118.056,90.6,70.491,97.549,45.439,131.172    c-25.051,33.623-18.103,81.188,15.52,106.239c28.665,21.358,68.346,19.825,95.279-3.679l64,49.68    c-9.588,27.212,4.699,57.044,31.911,66.631c5.631,1.984,11.559,2.988,17.529,2.969l0.4-0.32    c28.94,0.077,52.462-23.321,52.539-52.261C322.694,271.491,299.296,247.969,270.357,247.892z M243.999,11.652    c18.689,0,33.84,15.151,33.84,33.84c0,18.689-15.151,33.84-33.84,33.84c-18.689,0-33.84-15.151-33.84-33.84    C210.203,26.821,225.328,11.696,243.999,11.652z M106.799,240.052c-35.346,0-64-28.654-64-64c0-35.346,28.654-64,64-64    c35.346,0,64,28.654,64,64C170.799,211.398,142.145,240.052,106.799,240.052z M270.079,339.652c-22.091,0-40-17.909-40-40    c0.217-22.001,17.999-39.783,40-40c22.091,0,40,17.909,40,40C310.079,321.743,292.17,339.652,270.079,339.652z" fill="#933EC5"/>
	</g>
</g>
<g>
</g>
<g>
</g>
<g>
</g>
<g>
</g>
<g>
</g>
<g>
</g>
<g>
</g>
<g>
</g>
<g>
</g>
<g>
</g>
<g>
</g>
<g>
</g>
<g>
</g>
<g>
</g>
<g>
</g>
</svg>
