<?xml version="1.0" encoding="iso-8859-1"?>
<!-- Generator: Adobe Illustrator 19.0.0, SVG Export Plug-In . SVG Version: 6.00 Build 0)  -->
<svg xmlns="http://www.w3.org/2000/svg" xmlns:xlink="http://www.w3.org/1999/xlink" version="1.1" id="Capa_1" x="0px" y="0px" viewBox="0 0 372.991 372.991" style="enable-background:new 0 0 372.991 372.991;" xml:space="preserve" width="512px" height="512px">
<g>
	<g>
		<path d="M372.759,197.804c-0.427-1.493-1.416-2.763-2.76-3.542L8.719,8.022c-2.954-1.502-6.566-0.324-8.068,2.63    c-0.642,1.263-0.816,2.711-0.492,4.09l67.2,282.48c0.71,3.237,3.91,5.285,7.146,4.575c0.291-0.064,0.576-0.149,0.854-0.255    l83.6-27.36l67.04,89.04c1.988,2.651,5.749,3.188,8.4,1.2c1.511-1.133,2.4-2.911,2.4-4.8v-111.2l131.84-43.2    C371.825,204.311,373.67,200.99,372.759,197.804z M225.119,341.942l-54.32-72l54.32-17.84V341.942z M237.759,235.222    L95.199,94.582c-2.285-2.4-6.083-2.493-8.483-0.209s-2.493,6.083-0.209,8.483c0.094,0.099,0.191,0.194,0.291,0.286l138.16,136.64    l-147.36,48l-62.8-263.12l336.8,173.68L237.759,235.222z" fill="#933EC5"/>
	</g>
</g>
<g>
</g>
<g>
</g>
<g>
</g>
<g>
</g>
<g>
</g>
<g>
</g>
<g>
</g>
<g>
</g>
<g>
</g>
<g>
</g>
<g>
</g>
<g>
</g>
<g>
</g>
<g>
</g>
<g>
</g>
</svg>
