<?xml version="1.0" encoding="iso-8859-1"?>
<!-- Generator: Adobe Illustrator 19.0.0, SVG Export Plug-In . SVG Version: 6.00 Build 0)  -->
<svg xmlns="http://www.w3.org/2000/svg" xmlns:xlink="http://www.w3.org/1999/xlink" version="1.1" id="Capa_1" x="0px" y="0px" viewBox="0 0 438.722 438.722" style="enable-background:new 0 0 438.722 438.722;" xml:space="preserve" width="512px" height="512px">
<g>
	<g>
		<path d="M326.765,246.72c-4.418,0-8,3.582-8,8c0.141,55.096-44.408,99.874-99.504,100.016    c-55.096,0.141-99.874-44.408-100.016-99.504c-0.141-55.096,44.408-99.874,99.504-100.016c23.2-0.06,45.695,7.969,63.616,22.704    c-4.237-0.008-7.746,3.29-8,7.52c0,4.418,3.582,8,8,8l19.68,0.8c1.013,0.002,2.018-0.188,2.96-0.56l0.88-0.56    c0.573-0.282,1.11-0.631,1.6-1.04c0.263-0.274,0.504-0.568,0.72-0.88c0.403-0.437,0.752-0.92,1.04-1.44    c0.03-0.399,0.03-0.801,0-1.2c0.183-0.492,0.317-1.001,0.4-1.52l1.68-19.68c0.376-4.418-2.902-8.304-7.32-8.68    s-8.304,2.902-8.68,7.32v2.24c-47.717-42.15-120.568-37.638-162.719,10.079s-37.638,120.568,10.079,162.719    c47.717,42.15,120.568,37.638,162.719-10.079c18.646-21.109,28.92-48.314,28.881-76.479    C334.168,250.335,330.904,246.967,326.765,246.72z" fill="#933EC5"/>
	</g>
</g>
<g>
	<g>
		<path d="M378.765,163.36h0.56l19.52-19.52c6.49-6.497,6.49-17.023,0-23.52l-46.64-46.64c-6.515-6.446-17.005-6.446-23.52,0    l-19.52,19.52l-0.64,0.8c-18.809-10.419-39.311-17.434-60.56-20.72V50.64h3.36c8.939-0.344,16.007-7.694,16-16.64V16.72    c0.05-8.977-7.03-16.375-16-16.72h-64c-8.97,0.345-16.05,7.743-16,16.72V34c-0.007,8.946,7.061,16.296,16,16.64h3.44v22.24    C90.352,88.493,21.607,182.551,37.219,282.965s109.671,169.159,210.085,153.546S416.463,326.84,400.85,226.426    C397.4,204.232,389.914,182.858,378.765,163.36z M339.325,84.56c0.234-0.265,0.638-0.29,0.903-0.057    c0.02,0.018,0.039,0.037,0.057,0.057l47.04,46.8c0.265,0.234,0.29,0.638,0.057,0.903c-0.018,0.02-0.037,0.039-0.057,0.057    l-17.2,17.04c-12.991-18.504-29.259-34.474-48-47.12L339.325,84.56z M187.325,34.64c-0.114-0.198-0.114-0.442,0-0.64V16.72    c-0.148-0.217-0.148-0.503,0-0.72h64c0.353,0,0.64,0.286,0.64,0.64V34c0,0.353-0.286,0.64-0.64,0.64H187.325z M231.165,50.64    v20.08h-24V50.64H231.165z M219.325,422.72c-92.784,0-168-75.216-168-168s75.216-168,168-168s168,75.216,168,168    S312.109,422.72,219.325,422.72z" fill="#933EC5"/>
	</g>
</g>
<g>
</g>
<g>
</g>
<g>
</g>
<g>
</g>
<g>
</g>
<g>
</g>
<g>
</g>
<g>
</g>
<g>
</g>
<g>
</g>
<g>
</g>
<g>
</g>
<g>
</g>
<g>
</g>
<g>
</g>
</svg>
